<svg width="56" height="37" viewBox="0 0 56 37" fill="none" xmlns="http://www.w3.org/2000/svg">
<path d="M4.35813 3.552V10.448C4.35813 10.9173 4.44346 11.2373 4.61413 11.408C4.79546 11.5787 5.09413 11.664 5.51013 11.664V12C5.2968 11.9893 4.98213 11.9787 4.56613 11.968C4.1608 11.9467 3.73946 11.936 3.30213 11.936C2.75813 11.936 2.23013 11.9467 1.71813 11.968C1.2168 11.9787 0.827464 11.9893 0.55013 12V11.664C1.03013 11.664 1.39813 11.5787 1.65413 11.408C1.9208 11.2267 2.05413 10.8747 2.05413 10.352V6.448C2.05413 5.936 2.01146 5.55733 1.92613 5.312C1.8408 5.06667 1.6808 4.90667 1.44613 4.832C1.21146 4.75733 0.891464 4.72 0.48613 4.72V4.368C1.40346 4.34667 2.1608 4.27733 2.75813 4.16C3.36613 4.04267 3.89946 3.84 4.35813 3.552ZM13.1071 0.431999L13.1711 0.752C12.7871 0.879999 12.4031 1.03467 12.0191 1.216C11.6351 1.39733 11.2671 1.648 10.9151 1.968C10.5738 2.288 10.2698 2.69867 10.0031 3.2C9.73646 3.69067 9.52313 4.30933 9.36313 5.056C9.2138 5.80267 9.13913 6.704 9.13913 7.76C9.13913 8.816 9.2138 9.648 9.36313 10.256C9.52313 10.8533 9.72046 11.28 9.95513 11.536C10.1898 11.7813 10.4191 11.904 10.6431 11.904C10.8885 11.904 11.1178 11.792 11.3311 11.568C11.5445 11.344 11.7151 10.9867 11.8431 10.496C11.9818 10.0053 12.0511 9.36 12.0511 8.56C12.0511 7.792 11.9871 7.17867 11.8591 6.72C11.7418 6.26133 11.5818 5.93067 11.3791 5.728C11.1765 5.52533 10.9471 5.424 10.6911 5.424C10.5098 5.424 10.3071 5.47733 10.0831 5.584C9.85913 5.69067 9.65113 5.86133 9.45913 6.096C9.26713 6.33067 9.12846 6.66133 9.04313 7.088L8.89913 7.024C8.96313 6.512 9.1178 6.10667 9.36313 5.808C9.61913 5.49867 9.92313 5.28 10.2751 5.152C10.6271 5.024 10.9791 4.96 11.3311 4.96C11.9071 4.96 12.4298 5.09867 12.8991 5.376C13.3685 5.65333 13.7471 6.048 14.0351 6.56C14.3231 7.072 14.4671 7.69067 14.4671 8.416C14.4671 9.23733 14.2858 9.93067 13.9231 10.496C13.5605 11.0613 13.0751 11.4933 12.4671 11.792C11.8591 12.08 11.1978 12.224 10.4831 12.224C9.3098 12.224 8.38713 11.8293 7.71513 11.04C7.0538 10.24 6.72313 9.11467 6.72313 7.664C6.72313 6.704 6.8618 5.85067 7.13913 5.104C7.41646 4.35733 7.78446 3.712 8.24313 3.168C8.7018 2.61333 9.20846 2.14933 9.76313 1.776C10.3285 1.40267 10.8991 1.10933 11.4751 0.896C12.0618 0.672 12.6058 0.517333 13.1071 0.431999ZM21.0999 3.12C21.0999 3.824 21.1052 4.37333 21.1159 4.768C21.1265 5.152 21.1425 5.49867 21.1639 5.808C21.0785 5.78667 20.9132 5.77067 20.6679 5.76C20.4332 5.74933 20.1612 5.744 19.8519 5.744C19.5425 5.73333 19.2385 5.728 18.9399 5.728H16.4759L16.2199 8.464C16.4759 8.28267 16.8012 8.13333 17.1959 8.016C17.6012 7.888 18.0812 7.824 18.6359 7.824C19.3505 7.824 19.9372 7.936 20.3959 8.16C20.8545 8.384 21.1959 8.688 21.4199 9.072C21.6439 9.456 21.7559 9.88267 21.7559 10.352C21.7559 10.9707 21.5692 11.5253 21.1959 12.016C20.8332 12.5067 20.3425 12.928 19.7239 13.28C19.1052 13.632 18.4225 13.8987 17.6759 14.08C16.9292 14.272 16.1772 14.368 15.4199 14.368V14.08C15.9105 14.08 16.3905 14 16.8599 13.84C17.3399 13.68 17.7665 13.4453 18.1399 13.136C18.5132 12.8267 18.8119 12.448 19.0359 12C19.2599 11.552 19.3719 11.0347 19.3719 10.448C19.3719 9.78667 19.2172 9.27467 18.9079 8.912C18.5985 8.54933 18.1399 8.368 17.5319 8.368C17.2225 8.368 16.9559 8.41067 16.7319 8.496C16.5185 8.57067 16.3052 8.68267 16.0919 8.832L15.8679 8.688L16.3799 3.68C16.4972 3.70133 16.6305 3.71733 16.7799 3.728C16.9399 3.73867 17.0945 3.744 17.2439 3.744H19.8839C20.1932 3.744 20.4065 3.696 20.5239 3.6C20.6519 3.504 20.7319 3.344 20.7639 3.12H21.0999ZM31.016 3.504C31.8693 3.504 32.6213 3.68 33.272 4.032C33.9227 4.37333 34.4347 4.864 34.808 5.504C35.1813 6.13333 35.368 6.87467 35.368 7.728C35.368 8.58133 35.176 9.34933 34.792 10.032C34.4187 10.704 33.8907 11.2373 33.208 11.632C32.536 12.0267 31.7467 12.224 30.84 12.224C30.008 12.224 29.2613 12.048 28.6 11.696C27.9493 11.344 27.432 10.8533 27.048 10.224C26.6747 9.584 26.488 8.83733 26.488 7.984C26.488 7.14133 26.6747 6.384 27.048 5.712C27.4213 5.02933 27.9493 4.49067 28.632 4.096C29.3147 3.70133 30.1093 3.504 31.016 3.504ZM30.872 3.792C30.296 3.792 29.8213 4.16 29.448 4.896C29.0853 5.62133 28.904 6.63467 28.904 7.936C28.904 8.896 29 9.66933 29.192 10.256C29.384 10.8427 29.6347 11.2693 29.944 11.536C30.264 11.8027 30.6107 11.936 30.984 11.936C31.56 11.936 32.0293 11.568 32.392 10.832C32.7653 10.096 32.952 9.07733 32.952 7.776C32.952 6.816 32.856 6.04267 32.664 5.456C32.472 4.86933 32.216 4.448 31.896 4.192C31.5867 3.92533 31.2453 3.792 30.872 3.792ZM41.3285 3.504C42.1818 3.504 42.9338 3.68 43.5845 4.032C44.2352 4.37333 44.7472 4.864 45.1205 5.504C45.4938 6.13333 45.6805 6.87467 45.6805 7.728C45.6805 8.58133 45.4885 9.34933 45.1045 10.032C44.7312 10.704 44.2032 11.2373 43.5205 11.632C42.8485 12.0267 42.0592 12.224 41.1525 12.224C40.3205 12.224 39.5738 12.048 38.9125 11.696C38.2618 11.344 37.7445 10.8533 37.3605 10.224C36.9872 9.584 36.8005 8.83733 36.8005 7.984C36.8005 7.14133 36.9872 6.384 37.3605 5.712C37.7338 5.02933 38.2618 4.49067 38.9445 4.096C39.6272 3.70133 40.4218 3.504 41.3285 3.504ZM41.1845 3.792C40.6085 3.792 40.1338 4.16 39.7605 4.896C39.3978 5.62133 39.2165 6.63467 39.2165 7.936C39.2165 8.896 39.3125 9.66933 39.5045 10.256C39.6965 10.8427 39.9472 11.2693 40.2565 11.536C40.5765 11.8027 40.9232 11.936 41.2965 11.936C41.8725 11.936 42.3418 11.568 42.7045 10.832C43.0778 10.096 43.2645 9.07733 43.2645 7.776C43.2645 6.816 43.1685 6.04267 42.9765 5.456C42.7845 4.86933 42.5285 4.448 42.2085 4.192C41.8992 3.92533 41.5578 3.792 41.1845 3.792ZM51.641 3.504C52.4943 3.504 53.2463 3.68 53.897 4.032C54.5477 4.37333 55.0597 4.864 55.433 5.504C55.8063 6.13333 55.993 6.87467 55.993 7.728C55.993 8.58133 55.801 9.34933 55.417 10.032C55.0437 10.704 54.5157 11.2373 53.833 11.632C53.161 12.0267 52.3717 12.224 51.465 12.224C50.633 12.224 49.8863 12.048 49.225 11.696C48.5743 11.344 48.057 10.8533 47.673 10.224C47.2997 9.584 47.113 8.83733 47.113 7.984C47.113 7.14133 47.2997 6.384 47.673 5.712C48.0463 5.02933 48.5743 4.49067 49.257 4.096C49.9397 3.70133 50.7343 3.504 51.641 3.504ZM51.497 3.792C50.921 3.792 50.4463 4.16 50.073 4.896C49.7103 5.62133 49.529 6.63467 49.529 7.936C49.529 8.896 49.625 9.66933 49.817 10.256C50.009 10.8427 50.2597 11.2693 50.569 11.536C50.889 11.8027 51.2357 11.936 51.609 11.936C52.185 11.936 52.6543 11.568 53.017 10.832C53.3903 10.096 53.577 9.07733 53.577 7.776C53.577 6.816 53.481 6.04267 53.289 5.456C53.097 4.86933 52.841 4.448 52.521 4.192C52.2117 3.92533 51.8703 3.792 51.497 3.792ZM3.49413 24.552V34.312C3.49413 34.8133 3.62213 35.144 3.87813 35.304C4.13413 35.4747 4.48613 35.56 4.93413 35.56V35.896C4.6568 35.8853 4.2728 35.8693 3.78213 35.848C3.30213 35.8373 2.79013 35.832 2.24613 35.832C1.85146 35.832 1.46213 35.8373 1.07813 35.848C0.704797 35.8693 0.42213 35.8853 0.23013 35.896V35.56C0.58213 35.56 0.827464 35.4853 0.96613 35.336C1.11546 35.1867 1.19013 34.8987 1.19013 34.472V26.472C1.19013 25.992 1.11546 25.64 0.96613 25.416C0.816797 25.1813 0.55013 25.064 0.16613 25.064V24.728C0.507464 24.76 0.83813 24.776 1.15813 24.776C1.59546 24.776 2.01146 24.76 2.40613 24.728C2.8008 24.6853 3.16346 24.6267 3.49413 24.552ZM5.97413 24.504C6.51813 24.504 7.00346 24.6533 7.43013 24.952C7.8568 25.24 8.19813 25.6827 8.45413 26.28C8.71013 26.8667 8.83813 27.6027 8.83813 28.488C8.83813 29.2667 8.74746 29.9493 8.56613 30.536C8.39546 31.1227 8.1448 31.6187 7.81413 32.024C7.49413 32.4187 7.1048 32.7173 6.64613 32.92C6.19813 33.1227 5.69146 33.224 5.12613 33.224C4.71013 33.224 4.33146 33.1493 3.99013 33C3.6488 32.8613 3.38746 32.6587 3.20613 32.392L3.36613 32.184C3.4728 32.376 3.62213 32.5253 3.81413 32.632C4.0168 32.7387 4.24613 32.792 4.50213 32.792C4.98213 32.792 5.3608 32.632 5.63813 32.312C5.91546 31.9813 6.1128 31.5227 6.23013 30.936C6.35813 30.3387 6.42213 29.6293 6.42213 28.808C6.42213 27.8907 6.36346 27.1707 6.24613 26.648C6.1288 26.1253 5.9688 25.752 5.76613 25.528C5.56346 25.304 5.31813 25.192 5.03013 25.192C4.64613 25.192 4.29413 25.3413 3.97413 25.64C3.6648 25.9387 3.4888 26.3653 3.44613 26.92L3.36613 26.36C3.55813 25.752 3.88346 25.2933 4.34213 24.984C4.81146 24.664 5.35546 24.504 5.97413 24.504ZM17.4135 24.728V25.048C17.2108 25.1013 17.0188 25.2293 16.8375 25.432C16.6562 25.624 16.4802 25.9547 16.3095 26.424L14.0535 32.76L13.4615 33.88L9.97351 25.96C9.79217 25.544 9.61084 25.2933 9.42951 25.208C9.25884 25.112 9.10951 25.064 8.98151 25.064V24.728C9.33351 24.76 9.69617 24.7867 10.0695 24.808C10.4535 24.8187 10.8215 24.824 11.1735 24.824C11.6108 24.824 12.0108 24.8133 12.3735 24.792C12.7362 24.7707 13.0775 24.7493 13.3975 24.728V25.064C13.1842 25.064 12.9815 25.08 12.7895 25.112C12.6082 25.1333 12.4802 25.208 12.4055 25.336C12.3415 25.4533 12.3735 25.6613 12.5015 25.96L14.5175 30.824L14.3735 30.92L15.5575 27.608C15.7602 27.032 15.8455 26.5627 15.8135 26.2C15.7815 25.8267 15.6642 25.5493 15.4615 25.368C15.2588 25.176 14.9815 25.0693 14.6295 25.048V24.728C14.8002 24.7387 14.9762 24.7493 15.1575 24.76C15.3388 24.76 15.5202 24.7653 15.7015 24.776C15.8828 24.776 16.0428 24.776 16.1815 24.776C16.3948 24.776 16.6188 24.7707 16.8535 24.76C17.0882 24.7493 17.2748 24.7387 17.4135 24.728ZM14.0535 32.76L13.4455 34.472C13.3388 34.7387 13.2268 34.9627 13.1095 35.144C13.0028 35.336 12.8802 35.4907 12.7415 35.608C12.5922 35.736 12.4002 35.832 12.1655 35.896C11.9308 35.9707 11.6588 36.008 11.3495 36.008C11.0935 36.008 10.8268 35.9653 10.5495 35.88C10.2828 35.7947 10.0588 35.656 9.87751 35.464C9.69617 35.272 9.60551 35.0267 9.60551 34.728C9.60551 34.3973 9.72284 34.1307 9.95751 33.928C10.1922 33.736 10.5015 33.64 10.8855 33.64C11.2375 33.64 11.5255 33.7253 11.7495 33.896C11.9735 34.0667 12.0855 34.3173 12.0855 34.648C12.0855 34.8613 12.0162 35.064 11.8775 35.256C11.7495 35.448 11.5522 35.592 11.2855 35.688C11.3388 35.6987 11.4028 35.704 11.4775 35.704C11.5522 35.704 11.6108 35.704 11.6535 35.704C11.9735 35.704 12.2562 35.6027 12.5015 35.4C12.7468 35.1973 12.9495 34.8773 13.1095 34.44L13.6695 32.792L14.0535 32.76ZM26.0003 20.44L26.2403 20.488C26.1336 21.0533 25.9843 21.5227 25.7923 21.896C25.6109 22.2587 25.4029 22.5307 25.1683 22.712C24.9549 22.8933 24.6936 23.032 24.3843 23.128C24.0749 23.2133 23.7176 23.2667 23.3123 23.288C23.1523 23.2987 22.9336 23.3147 22.6563 23.336C22.3896 23.3467 22.0589 23.3733 21.6643 23.416C21.1203 23.48 20.6723 23.5867 20.3203 23.736C19.9683 23.8747 19.6803 24.088 19.4563 24.376C19.2429 24.664 19.0669 25.0587 18.9283 25.56C18.8003 26.0613 18.6883 26.7013 18.5923 27.48L19.8083 27.768L18.4163 28.424C18.4803 27.5813 18.6936 26.904 19.0563 26.392C19.4296 25.88 19.9043 25.5067 20.4803 25.272C21.0563 25.0373 21.6856 24.92 22.3683 24.92C23.1469 24.92 23.8083 25.0693 24.3523 25.368C24.9069 25.6667 25.3336 26.1147 25.6323 26.712C25.9309 27.2987 26.0803 28.0453 26.0803 28.952C26.0803 29.912 25.9096 30.712 25.5683 31.352C25.2269 31.9813 24.7523 32.4507 24.1443 32.76C23.5469 33.0693 22.8429 33.224 22.0323 33.224C21.3176 33.224 20.7203 33.112 20.2403 32.888C19.7603 32.664 19.3763 32.3387 19.0883 31.912C18.8003 31.4853 18.5869 30.952 18.4483 30.312C18.3203 29.672 18.2563 28.936 18.2563 28.104C18.2563 27.816 18.2669 27.4747 18.2883 27.08C18.3096 26.6853 18.3469 26.2693 18.4003 25.832C18.4643 25.3947 18.5549 24.9573 18.6723 24.52C18.7896 24.0827 18.9389 23.6773 19.1203 23.304C19.3016 22.9307 19.5309 22.616 19.8083 22.36C20.0536 22.1253 20.3416 21.944 20.6723 21.816C21.0029 21.688 21.3763 21.5973 21.7923 21.544C22.2509 21.4907 22.6723 21.4587 23.0563 21.448C23.4509 21.4267 23.7816 21.4107 24.0483 21.4C24.5923 21.3787 25.0029 21.2933 25.2803 21.144C25.5683 20.9947 25.8083 20.76 26.0003 20.44ZM22.2083 25.24C21.9309 25.24 21.6749 25.3573 21.4403 25.592C21.2056 25.8267 21.0136 26.216 20.8643 26.76C20.7256 27.304 20.6563 28.0347 20.6563 28.952C20.6563 29.8693 20.7256 30.6213 20.8643 31.208C21.0136 31.7947 21.2056 32.2267 21.4403 32.504C21.6749 32.7707 21.9256 32.904 22.1923 32.904C22.4589 32.904 22.6829 32.8027 22.8643 32.6C23.0563 32.3973 23.2056 32.1147 23.3123 31.752C23.4296 31.3787 23.5149 30.952 23.5683 30.472C23.6323 29.9813 23.6643 29.4533 23.6643 28.888C23.6643 27.5653 23.5256 26.6267 23.2483 26.072C22.9709 25.5173 22.6243 25.24 22.2083 25.24ZM28.8343 30.76C29.2503 30.76 29.5809 30.872 29.8263 31.096C30.0716 31.3093 30.1943 31.608 30.1943 31.992C30.1943 32.376 30.0716 32.68 29.8263 32.904C29.5809 33.1173 29.2503 33.224 28.8343 33.224C28.4183 33.224 28.0876 33.1173 27.8423 32.904C27.5969 32.68 27.4743 32.376 27.4743 31.992C27.4743 31.608 27.5969 31.3093 27.8423 31.096C28.0876 30.872 28.4183 30.76 28.8343 30.76Z" fill="#D0D0D0"/>
</svg>
