<svg width="78" height="39" viewBox="0 0 78 39" fill="none" xmlns="http://www.w3.org/2000/svg">
<path d="M6.19213 1.256V1.616C5.78413 1.628 5.47213 1.676 5.25613 1.76C5.05213 1.832 4.91413 1.976 4.84213 2.192C4.77013 2.396 4.73413 2.72 4.73413 3.164V12.092C4.73413 12.524 4.77013 12.848 4.84213 13.064C4.91413 13.28 5.05213 13.424 5.25613 13.496C5.47213 13.556 5.78413 13.586 6.19213 13.586H7.50613C8.07013 13.586 8.52613 13.526 8.87413 13.406C9.23413 13.286 9.51613 13.1 9.72013 12.848C9.93613 12.584 10.0981 12.236 10.2061 11.804C10.3141 11.372 10.3981 10.844 10.4581 10.22H10.8721C10.8361 10.592 10.8181 11.084 10.8181 11.696C10.8181 11.924 10.8241 12.254 10.8361 12.686C10.8601 13.106 10.8961 13.544 10.9441 14C10.3321 13.976 9.64213 13.964 8.87413 13.964C8.10613 13.952 7.42213 13.946 6.82213 13.946C6.55813 13.946 6.21613 13.946 5.79613 13.946C5.38813 13.946 4.94413 13.952 4.46413 13.964C3.98413 13.964 3.49813 13.97 3.00613 13.982C2.51413 13.982 2.04613 13.988 1.60213 14V13.64C2.01013 13.616 2.31613 13.568 2.52013 13.496C2.73613 13.424 2.88013 13.28 2.95213 13.064C3.02413 12.848 3.06013 12.524 3.06013 12.092V3.164C3.06013 2.72 3.02413 2.396 2.95213 2.192C2.88013 1.976 2.73613 1.832 2.52013 1.76C2.31613 1.676 2.01013 1.628 1.60213 1.616V1.256C1.85413 1.268 2.18413 1.28 2.59213 1.292C3.00013 1.304 3.43813 1.31 3.90613 1.31C4.32613 1.31 4.74013 1.304 5.14813 1.292C5.56813 1.28 5.91613 1.268 6.19213 1.256ZM16.3602 4.478C17.1282 4.478 17.8182 4.646 18.4302 4.982C19.0422 5.318 19.5282 5.846 19.8882 6.566C20.2602 7.286 20.4462 8.222 20.4462 9.374C20.4462 10.526 20.2602 11.462 19.8882 12.182C19.5282 12.89 19.0422 13.412 18.4302 13.748C17.8182 14.084 17.1282 14.252 16.3602 14.252C15.6042 14.252 14.9142 14.084 14.2902 13.748C13.6782 13.412 13.1862 12.89 12.8142 12.182C12.4542 11.462 12.2742 10.526 12.2742 9.374C12.2742 8.222 12.4542 7.286 12.8142 6.566C13.1862 5.846 13.6782 5.318 14.2902 4.982C14.9142 4.646 15.6042 4.478 16.3602 4.478ZM16.3602 4.838C15.6762 4.838 15.1122 5.192 14.6682 5.9C14.2362 6.608 14.0202 7.766 14.0202 9.374C14.0202 10.982 14.2362 12.14 14.6682 12.848C15.1122 13.544 15.6762 13.892 16.3602 13.892C17.0442 13.892 17.6022 13.544 18.0342 12.848C18.4782 12.14 18.7002 10.982 18.7002 9.374C18.7002 7.766 18.4782 6.608 18.0342 5.9C17.6022 5.192 17.0442 4.838 16.3602 4.838ZM29.9835 4.532V12.056C29.9835 12.596 30.0795 12.998 30.2715 13.262C30.4755 13.514 30.8355 13.64 31.3515 13.64V14.018C30.9795 13.982 30.6075 13.964 30.2355 13.964C29.8875 13.964 29.5515 13.982 29.2275 14.018C28.9155 14.054 28.6275 14.12 28.3635 14.216V12.092C28.0635 12.872 27.6375 13.43 27.0855 13.766C26.5455 14.09 25.9875 14.252 25.4115 14.252C24.9915 14.252 24.6255 14.192 24.3135 14.072C24.0015 13.952 23.7435 13.784 23.5395 13.568C23.3115 13.328 23.1555 13.016 23.0715 12.632C22.9875 12.248 22.9455 11.774 22.9455 11.21V6.692C22.9455 6.152 22.8495 5.756 22.6575 5.504C22.4655 5.24 22.1055 5.108 21.5775 5.108V4.73C21.9615 4.766 22.3335 4.784 22.6935 4.784C23.0415 4.784 23.3715 4.766 23.6835 4.73C24.0075 4.682 24.3015 4.616 24.5655 4.532V11.606C24.5655 11.978 24.5895 12.32 24.6375 12.632C24.6855 12.944 24.8055 13.196 24.9975 13.388C25.1895 13.58 25.5015 13.676 25.9335 13.676C26.4015 13.676 26.8155 13.532 27.1755 13.244C27.5475 12.956 27.8355 12.566 28.0395 12.074C28.2555 11.582 28.3635 11.03 28.3635 10.418V6.692C28.3635 6.152 28.2675 5.756 28.0755 5.504C27.8835 5.24 27.5235 5.108 26.9955 5.108V4.73C27.3795 4.766 27.7515 4.784 28.1115 4.784C28.4595 4.784 28.7895 4.766 29.1015 4.73C29.4255 4.682 29.7195 4.616 29.9835 4.532ZM34.3225 0.229999C34.6345 0.229999 34.9045 0.343999 35.1325 0.571999C35.3605 0.799999 35.4745 1.07 35.4745 1.382C35.4745 1.694 35.3605 1.964 35.1325 2.192C34.9045 2.42 34.6345 2.534 34.3225 2.534C34.0105 2.534 33.7405 2.42 33.5125 2.192C33.2845 1.964 33.1705 1.694 33.1705 1.382C33.1705 1.07 33.2845 0.799999 33.5125 0.571999C33.7405 0.343999 34.0105 0.229999 34.3225 0.229999ZM35.2585 4.532V12.326C35.2585 12.83 35.3605 13.172 35.5645 13.352C35.7805 13.532 36.1345 13.622 36.6265 13.622V14C36.4225 13.988 36.1105 13.976 35.6905 13.964C35.2825 13.94 34.8685 13.928 34.4485 13.928C34.0405 13.928 33.6265 13.94 33.2065 13.964C32.7865 13.976 32.4745 13.988 32.2705 14V13.622C32.7625 13.622 33.1105 13.532 33.3145 13.352C33.5305 13.172 33.6385 12.83 33.6385 12.326V6.692C33.6385 6.152 33.5425 5.756 33.3505 5.504C33.1585 5.24 32.7985 5.108 32.2705 5.108V4.73C32.6545 4.766 33.0265 4.784 33.3865 4.784C33.7345 4.784 34.0645 4.766 34.3765 4.73C34.7005 4.682 34.9945 4.616 35.2585 4.532ZM40.7659 4.478C41.2459 4.478 41.6539 4.556 41.9899 4.712C42.3259 4.868 42.5719 5.012 42.7279 5.144C43.1239 5.468 43.3639 5.252 43.4479 4.496H43.8619C43.8379 4.832 43.8199 5.234 43.8079 5.702C43.7959 6.158 43.7899 6.776 43.7899 7.556H43.3759C43.3039 7.112 43.1779 6.68 42.9979 6.26C42.8299 5.84 42.5779 5.498 42.2419 5.234C41.9059 4.958 41.4679 4.82 40.9279 4.82C40.5079 4.82 40.1539 4.94 39.8659 5.18C39.5899 5.408 39.4519 5.75 39.4519 6.206C39.4519 6.566 39.5599 6.878 39.7759 7.142C39.9919 7.394 40.2739 7.634 40.6219 7.862C40.9699 8.078 41.3479 8.318 41.7559 8.582C42.2119 8.87 42.6259 9.164 42.9979 9.464C43.3699 9.764 43.6639 10.094 43.8799 10.454C44.1079 10.814 44.2219 11.24 44.2219 11.732C44.2219 12.284 44.0779 12.746 43.7899 13.118C43.5019 13.49 43.1239 13.772 42.6559 13.964C42.1999 14.156 41.6959 14.252 41.1439 14.252C40.8799 14.252 40.6279 14.228 40.3879 14.18C40.1599 14.144 39.9379 14.084 39.7219 14C39.6019 13.94 39.4759 13.868 39.3439 13.784C39.2239 13.7 39.1039 13.61 38.9839 13.514C38.8639 13.418 38.7559 13.424 38.6599 13.532C38.5639 13.628 38.4919 13.826 38.4439 14.126H38.0299C38.0539 13.742 38.0719 13.274 38.0839 12.722C38.0959 12.17 38.1019 11.438 38.1019 10.526H38.5159C38.5999 11.198 38.7199 11.786 38.8759 12.29C39.0319 12.794 39.2779 13.19 39.6139 13.478C39.9499 13.754 40.4179 13.892 41.0179 13.892C41.2579 13.892 41.4979 13.838 41.7379 13.73C41.9899 13.622 42.1999 13.442 42.3679 13.19C42.5359 12.938 42.6199 12.602 42.6199 12.182C42.6199 11.654 42.4279 11.222 42.0439 10.886C41.6599 10.55 41.1739 10.196 40.5859 9.824C40.1539 9.548 39.7459 9.272 39.3619 8.996C38.9899 8.72 38.6839 8.408 38.4439 8.06C38.2159 7.712 38.1019 7.292 38.1019 6.8C38.1019 6.26 38.2219 5.822 38.4619 5.486C38.7139 5.138 39.0439 4.886 39.4519 4.73C39.8599 4.562 40.2979 4.478 40.7659 4.478ZM53.701 1.256V1.634C53.101 1.634 52.735 1.7 52.603 1.832C52.471 1.952 52.489 2.15 52.657 2.426L59.389 12.722C59.617 13.07 59.809 13.304 59.965 13.424C60.121 13.532 60.331 13.598 60.595 13.622V14C60.439 13.988 60.217 13.976 59.929 13.964C59.653 13.94 59.359 13.928 59.047 13.928C58.567 13.928 58.081 13.94 57.589 13.964C57.109 13.976 56.749 13.988 56.509 14V13.622C57.109 13.622 57.493 13.586 57.661 13.514C57.829 13.442 57.829 13.274 57.661 13.01L50.821 2.534C50.593 2.186 50.401 1.952 50.245 1.832C50.101 1.712 49.891 1.646 49.615 1.634V1.256C49.771 1.268 49.993 1.286 50.281 1.31C50.569 1.322 50.863 1.328 51.163 1.328C51.655 1.328 52.117 1.322 52.549 1.31C52.981 1.286 53.365 1.268 53.701 1.256ZM54.691 7.43C54.691 7.43 54.703 7.472 54.727 7.556C54.751 7.628 54.775 7.706 54.799 7.79C54.835 7.862 54.853 7.898 54.853 7.898L52.639 11.192C52.207 11.84 51.979 12.338 51.955 12.686C51.943 13.034 52.081 13.28 52.369 13.424C52.657 13.556 53.053 13.628 53.557 13.64V14C53.389 13.988 53.197 13.982 52.981 13.982C52.765 13.97 52.543 13.964 52.315 13.964C52.099 13.952 51.883 13.946 51.667 13.946C51.463 13.946 51.283 13.946 51.127 13.946C50.827 13.946 50.539 13.952 50.263 13.964C49.999 13.964 49.777 13.976 49.597 14V13.64C49.969 13.58 50.317 13.412 50.641 13.136C50.965 12.86 51.295 12.476 51.631 11.984L54.691 7.43ZM60.217 1.256V1.616C59.845 1.664 59.497 1.832 59.173 2.12C58.849 2.396 58.519 2.78 58.183 3.272L55.285 7.592C55.285 7.592 55.267 7.514 55.231 7.358C55.195 7.202 55.177 7.124 55.177 7.124L57.229 4.064C57.661 3.416 57.913 2.918 57.985 2.57C58.057 2.222 57.973 1.982 57.733 1.85C57.493 1.706 57.121 1.628 56.617 1.616V1.256C56.845 1.268 57.079 1.28 57.319 1.292C57.559 1.292 57.793 1.298 58.021 1.31C58.261 1.31 58.483 1.31 58.687 1.31C58.999 1.31 59.287 1.304 59.551 1.292C59.815 1.28 60.037 1.268 60.217 1.256ZM72.1832 1.256V1.616C71.9552 1.664 71.7092 1.802 71.4452 2.03C71.1932 2.258 70.9652 2.642 70.7612 3.182L66.5312 14.09C66.5072 14.09 66.4832 14.09 66.4592 14.09C66.4352 14.09 66.4112 14.09 66.3872 14.09C66.3632 14.09 66.3392 14.09 66.3152 14.09C66.2912 14.09 66.2672 14.09 66.2432 14.09L61.8512 2.768C61.6712 2.312 61.4672 2.012 61.2392 1.868C61.0112 1.712 60.8012 1.628 60.6092 1.616V1.256C60.8492 1.268 61.1432 1.28 61.4912 1.292C61.8512 1.304 62.1992 1.31 62.5352 1.31C63.0032 1.31 63.4412 1.304 63.8492 1.292C64.2572 1.28 64.5872 1.268 64.8392 1.256V1.616C64.4312 1.628 64.1192 1.676 63.9032 1.76C63.6992 1.844 63.5852 1.994 63.5612 2.21C63.5492 2.414 63.6212 2.72 63.7772 3.128L67.1252 12.002L66.8372 12.308L69.9692 4.172C70.2212 3.524 70.3412 3.02 70.3292 2.66C70.3172 2.288 70.1792 2.024 69.9152 1.868C69.6512 1.712 69.2672 1.628 68.7632 1.616V1.256C69.1112 1.268 69.4652 1.28 69.8252 1.292C70.1852 1.304 70.5212 1.31 70.8332 1.31C71.1452 1.31 71.4032 1.304 71.6072 1.292C71.8112 1.28 72.0032 1.268 72.1832 1.256ZM77.4011 1.256V1.616C76.9931 1.628 76.6811 1.676 76.4651 1.76C76.2611 1.832 76.1231 1.976 76.0511 2.192C75.9791 2.396 75.9431 2.72 75.9431 3.164V12.092C75.9431 12.524 75.9791 12.848 76.0511 13.064C76.1231 13.28 76.2611 13.424 76.4651 13.496C76.6811 13.568 76.9931 13.616 77.4011 13.64V14C77.1251 13.976 76.7771 13.964 76.3571 13.964C75.9491 13.952 75.5351 13.946 75.1151 13.946C74.6471 13.946 74.2091 13.952 73.8011 13.964C73.3931 13.964 73.0631 13.976 72.8111 14V13.64C73.2191 13.616 73.5251 13.568 73.7291 13.496C73.9451 13.424 74.0891 13.28 74.1611 13.064C74.2331 12.848 74.2691 12.524 74.2691 12.092V3.164C74.2691 2.72 74.2331 2.396 74.1611 2.192C74.0891 1.976 73.9451 1.832 73.7291 1.76C73.5251 1.676 73.2191 1.628 72.8111 1.616V1.256C73.0631 1.268 73.3931 1.28 73.8011 1.292C74.2091 1.304 74.6471 1.31 75.1151 1.31C75.5351 1.31 75.9491 1.304 76.3571 1.292C76.7771 1.28 77.1251 1.268 77.4011 1.256ZM6.66013 25.166L11.0521 36.488C11.2321 36.944 11.4361 37.25 11.6641 37.406C11.8921 37.55 12.1021 37.628 12.2941 37.64V38C12.0541 37.976 11.7601 37.964 11.4121 37.964C11.0641 37.952 10.7161 37.946 10.3681 37.946C9.90013 37.946 9.46213 37.952 9.05413 37.964C8.64613 37.964 8.31613 37.976 8.06413 38V37.64C8.67613 37.616 9.06613 37.514 9.23413 37.334C9.40213 37.142 9.36613 36.74 9.12613 36.128L5.77813 27.182L6.06613 26.948L2.93413 35.084C2.74213 35.564 2.62813 35.972 2.59213 36.308C2.55613 36.632 2.58613 36.89 2.68213 37.082C2.79013 37.274 2.96413 37.412 3.20413 37.496C3.45613 37.58 3.76813 37.628 4.14013 37.64V38C3.80413 37.976 3.45013 37.964 3.07813 37.964C2.71813 37.952 2.38213 37.946 2.07013 37.946C1.77013 37.946 1.51213 37.952 1.29613 37.964C1.09213 37.964 0.90013 37.976 0.72013 38V37.64C0.96013 37.58 1.20613 37.442 1.45813 37.226C1.71013 36.998 1.93813 36.614 2.14213 36.074L6.37213 25.166C6.42013 25.166 6.46813 25.166 6.51613 25.166C6.56413 25.166 6.61213 25.166 6.66013 25.166ZM8.85613 32.816V33.176H3.49213L3.67213 32.816H8.85613ZM21.9435 25.256C21.8955 25.712 21.8595 26.156 21.8355 26.588C21.8235 27.008 21.8175 27.332 21.8175 27.56C21.8175 27.848 21.8235 28.118 21.8355 28.37C21.8475 28.622 21.8595 28.844 21.8715 29.036H21.4575C21.3735 28.196 21.2595 27.536 21.1155 27.056C20.9715 26.564 20.7195 26.21 20.3595 25.994C19.9995 25.778 19.4415 25.67 18.6855 25.67H17.7135V35.912C17.7135 36.392 17.7555 36.752 17.8395 36.992C17.9355 37.232 18.1155 37.394 18.3795 37.478C18.6435 37.562 19.0275 37.616 19.5315 37.64V38C19.2195 37.976 18.8235 37.964 18.3435 37.964C17.8635 37.952 17.3775 37.946 16.8855 37.946C16.3455 37.946 15.8355 37.952 15.3555 37.964C14.8875 37.964 14.5095 37.976 14.2215 38V37.64C14.7255 37.616 15.1095 37.562 15.3735 37.478C15.6375 37.394 15.8115 37.232 15.8955 36.992C15.9915 36.752 16.0395 36.392 16.0395 35.912V25.67H15.0675C14.3235 25.67 13.7655 25.778 13.3935 25.994C13.0335 26.21 12.7815 26.564 12.6375 27.056C12.4935 27.536 12.3795 28.196 12.2955 29.036H11.8815C11.9055 28.844 11.9175 28.622 11.9175 28.37C11.9295 28.118 11.9355 27.848 11.9355 27.56C11.9355 27.332 11.9235 27.008 11.8995 26.588C11.8875 26.156 11.8575 25.712 11.8095 25.256C12.3135 25.268 12.8595 25.28 13.4475 25.292C14.0475 25.304 14.6475 25.31 15.2475 25.31C15.8475 25.31 16.3935 25.31 16.8855 25.31C17.3775 25.31 17.9175 25.31 18.5055 25.31C19.1055 25.31 19.7055 25.304 20.3055 25.292C20.9055 25.28 21.4515 25.268 21.9435 25.256ZM30.7472 38V37.64C31.1552 37.616 31.4612 37.568 31.6652 37.496C31.8812 37.424 32.0252 37.28 32.0972 37.064C32.1692 36.848 32.2052 36.524 32.2052 36.092V27.164C32.2052 26.72 32.1692 26.396 32.0972 26.192C32.0252 25.976 31.8812 25.832 31.6652 25.76C31.4612 25.676 31.1552 25.628 30.7472 25.616V25.256C31.0232 25.268 31.3712 25.28 31.7912 25.292C32.2112 25.304 32.6252 25.31 33.0332 25.31C33.5012 25.31 33.9392 25.304 34.3472 25.292C34.7552 25.28 35.0852 25.268 35.3372 25.256V25.616C34.9292 25.628 34.6172 25.676 34.4012 25.76C34.1972 25.832 34.0592 25.976 33.9872 26.192C33.9152 26.396 33.8792 26.72 33.8792 27.164V36.092C33.8792 36.524 33.9152 36.848 33.9872 37.064C34.0592 37.28 34.1972 37.424 34.4012 37.496C34.6172 37.568 34.9292 37.616 35.3372 37.64V38C35.0852 37.976 34.7552 37.964 34.3472 37.964C33.9392 37.952 33.5012 37.946 33.0332 37.946C32.6252 37.946 32.2112 37.952 31.7912 37.964C31.3712 37.964 31.0232 37.976 30.7472 38ZM23.2232 38V37.64C23.6312 37.616 23.9372 37.568 24.1412 37.496C24.3572 37.424 24.5012 37.28 24.5732 37.064C24.6452 36.848 24.6812 36.524 24.6812 36.092V27.164C24.6812 26.72 24.6452 26.396 24.5732 26.192C24.5012 25.976 24.3572 25.832 24.1412 25.76C23.9372 25.676 23.6312 25.628 23.2232 25.616V25.256C23.4752 25.268 23.8052 25.28 24.2132 25.292C24.6212 25.304 25.0592 25.31 25.5272 25.31C25.9472 25.31 26.3612 25.304 26.7692 25.292C27.1892 25.28 27.5372 25.268 27.8132 25.256V25.616C27.4052 25.628 27.0932 25.676 26.8772 25.76C26.6732 25.832 26.5352 25.976 26.4632 26.192C26.3912 26.396 26.3552 26.72 26.3552 27.164V36.092C26.3552 36.524 26.3912 36.848 26.4632 37.064C26.5352 37.28 26.6732 37.424 26.8772 37.496C27.0932 37.568 27.4052 37.616 27.8132 37.64V38C27.5372 37.976 27.1892 37.964 26.7692 37.964C26.3612 37.952 25.9472 37.946 25.5272 37.946C25.0592 37.946 24.6212 37.952 24.2132 37.964C23.8052 37.964 23.4752 37.976 23.2232 38ZM25.7252 31.772V31.412H32.8352V31.772H25.7252ZM42.6276 25.004C43.7676 25.004 44.7636 25.262 45.6156 25.778C46.4796 26.294 47.1456 27.038 47.6136 28.01C48.0936 28.97 48.3336 30.14 48.3336 31.52C48.3336 32.864 48.0876 34.04 47.5956 35.048C47.1156 36.056 46.4436 36.842 45.5796 37.406C44.7156 37.97 43.7256 38.252 42.6096 38.252C41.4696 38.252 40.4676 37.994 39.6036 37.478C38.7516 36.962 38.0856 36.218 37.6056 35.246C37.1376 34.274 36.9036 33.104 36.9036 31.736C36.9036 30.392 37.1496 29.216 37.6416 28.208C38.1336 27.2 38.8056 26.414 39.6576 25.85C40.5216 25.286 41.5116 25.004 42.6276 25.004ZM42.5556 25.328C41.7756 25.328 41.0976 25.598 40.5216 26.138C39.9456 26.678 39.4956 27.422 39.1716 28.37C38.8596 29.318 38.7036 30.416 38.7036 31.664C38.7036 32.936 38.8776 34.046 39.2256 34.994C39.5856 35.93 40.0656 36.656 40.6656 37.172C41.2776 37.676 41.9496 37.928 42.6816 37.928C43.4616 37.928 44.1396 37.658 44.7156 37.118C45.2916 36.578 45.7356 35.834 46.0476 34.886C46.3716 33.926 46.5336 32.828 46.5336 31.592C46.5336 30.308 46.3536 29.198 45.9936 28.262C45.6456 27.326 45.1716 26.606 44.5716 26.102C43.9716 25.586 43.2996 25.328 42.5556 25.328ZM53.8994 25.058C54.4994 25.058 54.9554 25.13 55.2674 25.274C55.5794 25.406 55.8554 25.556 56.0954 25.724C56.2394 25.808 56.3534 25.874 56.4374 25.922C56.5334 25.958 56.6234 25.976 56.7074 25.976C56.8274 25.976 56.9114 25.91 56.9594 25.778C57.0194 25.646 57.0674 25.448 57.1034 25.184H57.5174C57.5054 25.388 57.4874 25.634 57.4634 25.922C57.4514 26.198 57.4394 26.57 57.4274 27.038C57.4274 27.494 57.4274 28.1 57.4274 28.856H57.0134C56.9774 28.28 56.8514 27.728 56.6354 27.2C56.4194 26.672 56.1014 26.24 55.6814 25.904C55.2734 25.568 54.7334 25.4 54.0614 25.4C53.4254 25.4 52.8974 25.592 52.4774 25.976C52.0694 26.36 51.8654 26.864 51.8654 27.488C51.8654 28.028 52.0034 28.484 52.2794 28.856C52.5554 29.216 52.9214 29.546 53.3774 29.846C53.8454 30.134 54.3494 30.446 54.8894 30.782C55.5134 31.166 56.0654 31.55 56.5454 31.934C57.0374 32.306 57.4214 32.72 57.6974 33.176C57.9854 33.632 58.1294 34.184 58.1294 34.832C58.1294 35.6 57.9554 36.236 57.6074 36.74C57.2594 37.244 56.7974 37.622 56.2214 37.874C55.6454 38.126 55.0094 38.252 54.3134 38.252C53.6774 38.252 53.1734 38.18 52.8014 38.036C52.4294 37.892 52.1114 37.742 51.8474 37.586C51.5834 37.418 51.3794 37.334 51.2354 37.334C51.1154 37.334 51.0254 37.4 50.9654 37.532C50.9174 37.664 50.8754 37.862 50.8394 38.126H50.4254C50.4494 37.874 50.4614 37.58 50.4614 37.244C50.4734 36.896 50.4794 36.446 50.4794 35.894C50.4914 35.342 50.4974 34.646 50.4974 33.806H50.9114C50.9594 34.526 51.0914 35.198 51.3074 35.822C51.5354 36.446 51.8774 36.95 52.3334 37.334C52.8014 37.706 53.4194 37.892 54.1874 37.892C54.5834 37.892 54.9554 37.814 55.3034 37.658C55.6634 37.49 55.9574 37.232 56.1854 36.884C56.4134 36.524 56.5274 36.062 56.5274 35.498C56.5274 35.006 56.4074 34.58 56.1674 34.22C55.9394 33.848 55.6154 33.506 55.1954 33.194C54.7754 32.87 54.2834 32.54 53.7194 32.204C53.1554 31.856 52.6274 31.502 52.1354 31.142C51.6434 30.782 51.2474 30.368 50.9474 29.9C50.6594 29.42 50.5154 28.844 50.5154 28.172C50.5154 27.464 50.6714 26.882 50.9834 26.426C51.3074 25.958 51.7274 25.616 52.2434 25.4C52.7594 25.172 53.3114 25.058 53.8994 25.058Z" fill="white"/>
</svg>
