<svg width="81" height="14" viewBox="0 0 81 14" fill="none" xmlns="http://www.w3.org/2000/svg">
<path d="M2.69827 7.168H1.85227V13H0.35827V0.399999H1.85227V6.268L2.66227 6.016L6.89227 0.399999H8.62027L4.40827 5.818L3.65227 6.412L4.57027 7.132L9.17827 13H7.28827L2.69827 7.168ZM19.1386 9.508H14.4946L13.2346 13H11.7586L16.5286 0.202H17.2126L22.0006 13H20.4346L19.1386 9.508ZM14.9806 8.212H18.6886L17.2846 4.378L16.8346 2.47H16.8166L16.3666 4.414L14.9806 8.212ZM32.397 1.732H28.473V13H26.979V1.732H23.055V0.399999H32.397V1.732ZM40.8265 9.508H36.1825L34.9225 13H33.4465L38.2165 0.202H38.9005L43.6885 13H42.1225L40.8265 9.508ZM36.6685 8.212H40.3765L38.9725 4.378L38.5225 2.47H38.5045L38.0545 4.414L36.6685 8.212ZM53.7343 1.732H49.9723C49.8523 4.132 49.6903 6.13 49.4863 7.726C49.2943 9.31 49.0003 10.546 48.6043 11.434C48.3403 12.01 48.0283 12.43 47.6683 12.694C47.3083 12.958 46.9183 13.09 46.4983 13.09C46.2823 13.09 46.0963 13.072 45.9403 13.036C45.7843 13.012 45.6343 12.97 45.4903 12.91L45.6883 11.614C45.8083 11.65 45.9343 11.668 46.0663 11.668C46.2703 11.668 46.4683 11.602 46.6603 11.47C46.8643 11.338 47.0623 11.092 47.2543 10.732C47.4223 10.408 47.5783 9.976 47.7223 9.436C47.8783 8.896 48.0103 8.212 48.1183 7.384C48.2383 6.556 48.3343 5.572 48.4063 4.432C48.4783 3.28 48.5323 1.936 48.5683 0.399999H55.2283V13H53.7343V1.732ZM59.5667 6.7C59.5667 4.6 60.0107 2.992 60.8987 1.876C61.7867 0.748 63.0527 0.184 64.6967 0.184C65.5847 0.184 66.3527 0.34 67.0007 0.651999C67.6487 0.963999 68.1827 1.408 68.6027 1.984C69.0347 2.548 69.3527 3.232 69.5567 4.036C69.7607 4.828 69.8627 5.716 69.8627 6.7C69.8627 8.8 69.4127 10.414 68.5127 11.542C67.6247 12.658 66.3527 13.216 64.6967 13.216C63.8207 13.216 63.0587 13.06 62.4107 12.748C61.7747 12.436 61.2407 11.998 60.8087 11.434C60.3887 10.858 60.0767 10.174 59.8727 9.382C59.6687 8.578 59.5667 7.684 59.5667 6.7ZM61.1507 6.7C61.1507 7.396 61.2167 8.056 61.3487 8.68C61.4927 9.304 61.7087 9.856 61.9967 10.336C62.2847 10.804 62.6507 11.182 63.0947 11.47C63.5507 11.746 64.0847 11.884 64.6967 11.884C65.8127 11.884 66.6887 11.464 67.3247 10.624C67.9607 9.772 68.2787 8.464 68.2787 6.7C68.2787 6.016 68.2067 5.362 68.0627 4.738C67.9307 4.102 67.7147 3.55 67.4147 3.082C67.1267 2.602 66.7547 2.224 66.2987 1.948C65.8547 1.66 65.3207 1.516 64.6967 1.516C63.5927 1.516 62.7227 1.942 62.0867 2.794C61.4627 3.634 61.1507 4.936 61.1507 6.7ZM80.9434 1.732H75.6874V13H74.1934V0.399999H80.9434V1.732Z" fill="white"/>
</svg>
